<svg xmlns="http://www.w3.org/2000/svg" viewBox="0 0 32 32" width="32" height="32">
  <!-- Tomato body -->
  <ellipse cx="16" cy="19" rx="10" ry="9" fill="#e74c3c"/>
  
  <!-- Tomato indentation at top -->
  <path d="M8 12 Q12 15 16 12 Q20 15 24 12" stroke="#c0392b" stroke-width="1" fill="none"/>
  
  <!-- Tomato stem -->
  <path d="M14 6 Q16 4 18 6" stroke="#27ae60" stroke-width="3" fill="none" stroke-linecap="round"/>
  
  <!-- Tomato leaves -->
  <path d="M13 7 Q10 5 12 4 Q14 5 13 7" fill="#2ecc71"/>
  <path d="M19 7 Q22 5 20 4 Q18 5 19 7" fill="#2ecc71"/>
  <path d="M16 6 Q14 4 16 3 Q18 4 16 6" fill="#2ecc71"/>
  
  <!-- Tomato highlight -->
  <ellipse cx="11" cy="15" rx="2.5" ry="3.5" fill="#ff6b6b" opacity="0.6"/>
  
  <!-- Small shadow -->
  <ellipse cx="16" cy="26" rx="6" ry="2" fill="#000" opacity="0.1"/>
</svg>